Coordinates
version=1
nRows=4
nColumns=63
inDegrees=yes

Units are S.I. units (second, meters, Newtons, ...)
If the header above contains a line with 'inDegrees', this indicates whether rotational values are in degrees (yes) or radians (no).

endheader
time	pelvis_tilt	pelvis_list	pelvis_rotation	pelvis_tx	pelvis_ty	pelvis_tz	hip_flexion_r	hip_adduction_r	hip_rotation_r	knee_angle_r	knee_angle_r_beta	ankle_angle_r	subtalar_angle_r	mtp_angle_r	hip_flexion_l	hip_adduction_l	hip_rotation_l	knee_angle_l	knee_angle_l_beta	ankle_angle_l	subtalar_angle_l	mtp_angle_l	L5_S1_Flex_Ext	L5_S1_Lat_Bending	L5_S1_axial_rotation	L4_L5_Flex_Ext	L4_L5_Lat_Bending	L4_L5_axial_rotation	L3_L4_Flex_Ext	L3_L4_Lat_Bending	L3_L4_axial_rotation	L2_L3_Flex_Ext	L2_L3_Lat_Bending	L2_L3_axial_rotation	L1_L2_Flex_Ext	L1_L2_Lat_Bending	L1_L2_axial_rotation	L1_T12_Flex_Ext	L1_T12_Lat_Bending	L1_T12_axial_rotation	Abs_r3	Abs_r2	Abs_r1	Abs_t1	Abs_t2	neck_flexion	neck_bending	neck_rotation	arm_flex_r	arm_add_r	arm_rot_r	elbow_flex_r	pro_sup_r	wrist_flex_r	wrist_dev_r	arm_flex_l	arm_add_l	arm_rot_l	elbow_flex_l	pro_sup_l	wrist_flex_l	wrist_dev_l
      0.00000000	      0.57547169	     -4.06556434	     85.19159567	      0.29282177	      0.74258859	      0.59421280	      3.51384442	     -1.92673815	      6.94306791	      2.19442075	      0.03829987	     12.97356968	     -7.20799582	      0.00000000	      2.84136050	     -1.13223200	      9.66910724	      0.50157081	      0.00875406	     20.99122286	    -10.97327250	      0.00000000	      0.34542931	     -0.11778597	      1.27332839	      0.64149676	     -0.15665534	      1.35291142	      0.56750581	     -0.28638481	      1.35291142	      0.39479115	     -0.28638481	      1.11416234	      0.32076565	     -0.24018915	      1.03457932	      0.19737831	     -0.18245047	      0.95499630	      2.46736699	     -1.33241847	      7.08187053	      0.00000000	      0.00000000	     28.34063574	     -2.47333993	      3.90451538	     12.58426870	     -4.35302701	     56.57136780	     28.92599772	     83.23082829	     -8.18358835	     -0.88776468	     16.81989433	     -0.31167402	     65.39473964	     29.64628712	     55.70806966	     -4.58213644	     11.84637112
      0.02325581	      0.87559999	     -3.95036479	     86.15242202	      0.29145834	      0.74223166	      0.59317976	      3.01521192	     -1.65236011	      8.68692767	      1.66651538	      0.02908618	     13.40855659	     -9.80846029	      0.00000000	      2.75036362	     -1.36567492	     11.84590857	      0.48164491	      0.00840629	     20.65972194	    -12.38344850	      0.00000000	      0.38816055	     -0.06671636	      1.11872142	      0.72085296	     -0.08873276	      1.18864151	      0.63770897	     -0.16221415	      1.18864151	      0.44362869	     -0.16221415	      0.97888125	      0.36044589	     -0.13604800	      0.90896116	      0.22179494	     -0.10334364	      0.83904107	      2.77259200	     -0.75470878	      6.22199294	      0.00000000	      0.00000000	     28.36106621	     -2.60709931	      4.07818876	     11.87438914	     -4.54941899	     58.53414857	     28.73887004	     63.79758230	     -6.14252569	     -1.65744029	     17.00463899	      0.12274675	     65.46382655	     29.49055507	     59.97642537	     -3.47074441	     10.13885424
      0.04651163	      1.14491564	     -3.90171037	     86.84930074	      0.29041528	      0.74196284	      0.59258960	      2.74842226	     -1.39603909	      9.56612846	      1.40543790	      0.02452952	     13.66391920	    -11.33910120	      0.00000000	      2.69583635	     -1.59608788	     13.52810022	      0.49298026	      0.00860413	     20.23064547	    -13.50739072	      0.00000000	      0.41902600	     -0.02386549	      0.98673009	      0.77817319	     -0.03174110	      1.04840072	      0.68841782	     -0.05802655	      1.04840072	      0.47890482	     -0.05802655	      0.86338883	      0.38910754	     -0.04866651	      0.80171820	      0.23943146	     -0.03696764	      0.74004757	      2.99306082	     -0.26997119	      5.48789675	      0.00000000	      0.00000000	     28.37237511	     -2.63456064	      4.32132554	     11.71854354	     -4.78532603	     61.86786046	     28.60344471	     49.61537349	     -5.26002090	     -2.38539831	     16.95389923	      0.42814144	     65.22376465	     29.50675418	     61.82225545	     -3.49733556	      8.83946453
      0.06976744	      1.42566596	     -3.91289630	     87.32404421	      0.28953259	      0.74165025	      0.59222614	      2.65540897	     -1.12837835	      9.58875487	      1.33764191	      0.02334626	     13.91966177	    -11.68021950	      0.00000000	      2.67445601	     -1.86236939	     14.19143163	      0.52289797	      0.00912629	     20.10450366	    -13.46265555	      0.00000000	      0.44098165	      0.02071423	      0.91206359	      0.81894702	      0.02754992	      0.96906756	      0.72448875	      0.05036458	      0.96906756	      0.50399792	      0.05036458	      0.79805564	      0.40949556	      0.04224046	      0.74105167	      0.25197691	      0.03208634	      0.68404769	      3.14988780	      0.23432350	      5.07262407	      0.00000000	      0.00000000	     28.37991261	     -2.68368119	      4.66721473	     10.97372102	     -4.91787255	     60.88376304	     28.65712489	     46.99554999	     -4.60336721	     -2.13339925	     16.85393322	      0.75839830	     65.29713959	     29.48751778	     62.22778310	     -4.24421837	      7.63492014
